<svg width="39" height="39" viewBox="0 0 39 39" fill="none" xmlns="http://www.w3.org/2000/svg">
<path d="M21.125 30.875C21.125 30.3225 21.19 29.7863 21.2713 29.25H4.875V19.5H30.875V21.125C32.0125 21.125 33.1013 21.3363 34.125 21.6938V9.75C34.125 7.94625 32.6788 6.5 30.875 6.5H4.875C3.07125 6.5 1.625 7.94625 1.625 9.75V29.25C1.625 31.0375 3.07125 32.5 4.875 32.5H21.2713C21.19 31.9637 21.125 31.4275 21.125 30.875ZM4.875 9.75H30.875V13H4.875V9.75ZM28.8438 35.75L24.375 30.875L26.26 28.99L28.8438 31.5738L34.6775 25.74L36.5625 28.0312L28.8438 35.75Z" fill="#FBF0F0"/>
</svg>
