<svg width="38" height="20" viewBox="0 0 38 20" fill="none" xmlns="http://www.w3.org/2000/svg">
<path d="M1.18561 15.4101C1.01571 15.1358 0.789186 14.6974 0.649271 14.3728C-0.166902 12.4721 -0.203546 10.5045 0.482705 8.61726C1.23891 6.54593 2.6847 4.96316 4.55357 4.15336C6.90215 3.13945 9.49725 3.33688 11.7492 4.67873C13.1784 5.5019 14.1911 6.77348 14.9606 8.57376C15.0572 8.80465 15.1438 9.04893 15.2304 9.25974L1.18561 15.4101ZM5.87611 7.20849C4.20712 7.92793 3.34764 9.50067 3.52753 11.3411L10.5899 8.28598C9.37399 6.85379 7.79495 6.37862 5.87611 7.20849V7.20849ZM11.4694 13.8541C11.4661 13.8541 11.4661 13.8575 11.4661 13.8575L11.3195 13.7571C10.8964 14.4431 10.2401 15.0019 9.41064 15.3633C7.83159 16.0526 6.36914 15.8753 5.31645 14.9484L5.21984 15.0956C5.21984 15.0956 5.21984 15.0923 5.21651 15.0923L3.42426 17.786C3.87065 18.0972 4.34703 18.3582 4.84673 18.569C6.82553 19.3955 8.85097 19.3554 10.8464 18.4853C12.2889 17.8563 13.4215 16.8992 14.1944 15.6845L11.4694 13.8541ZM20.1375 0.191406V15.1625L22.4561 16.1062L21.1402 19.1914L18.5817 18.1206C18.0088 17.8696 17.6157 17.4882 17.3225 17.0565C17.0394 16.6181 16.8295 16.0125 16.8295 15.2027V0.191406H20.1375ZM26.1405 11.3511C26.1405 10.0762 26.7035 8.93181 27.5896 8.15548L25.2111 5.49186C23.5987 6.92406 22.5827 9.01546 22.5827 11.3445C22.5793 13.6768 23.5954 15.7715 25.2044 17.2037L27.5796 14.5401C26.6968 13.7604 26.1405 12.6227 26.1405 11.3511V11.3511ZM30.3646 15.5975C29.8982 15.5975 29.4452 15.5172 29.0254 15.3767L27.8894 18.7664C28.6656 19.0274 29.4951 19.1713 30.3613 19.1713C34.1257 19.1747 37.2671 16.491 37.9967 12.9272L34.5054 12.2111C34.109 14.1486 32.4067 15.6009 30.3646 15.5975V15.5975ZM30.3746 3.53096C29.5118 3.53096 28.6823 3.67151 27.9061 3.92917L29.0321 7.32226C29.4552 7.18172 29.9049 7.10476 30.3713 7.10476C32.4167 7.1081 34.1223 8.56707 34.5088 10.5079L38 9.79849C37.2838 6.22804 34.1423 3.53431 30.3746 3.53096V3.53096Z" fill="white"/>
</svg>
