<svg width="69" height="30" viewBox="0 0 69 30" fill="none" xmlns="http://www.w3.org/2000/svg">
<g clip-path="url(#clip0_3805_388)">
<path d="M19.0442 0H11.9087C8.75566 0.149226 6.17842 1.42042 5.43427 4.04182C5.04624 5.40894 4.8327 6.9104 4.52928 8.32758C2.98678 15.5335 1.61902 22.9379 0.143555 30H55.6967C59.9915 30 62.9406 29.0915 63.7373 25.6792C64.1075 24.0941 64.4621 22.299 64.8163 20.5575C66.1971 13.7675 67.579 6.97791 68.9934 0H19.0442Z" fill="#141212"/>
<path d="M18.487 10.6621C18.7854 10.4563 19.1698 9.51914 18.7307 9.12896C18.5916 9.00544 18.359 8.96959 18.0345 9.02452C17.7335 9.07538 17.5604 9.1778 17.4428 9.33812C17.2539 9.59585 17.0805 10.3734 17.3732 10.6622C17.6584 10.9433 18.2971 10.7929 18.487 10.6621V10.6621ZM14.2405 9.12896C14.0267 10.5177 13.7858 11.8794 13.5443 13.2405C11.9937 13.2568 10.4105 13.317 8.91491 13.2056C9.19738 11.874 9.39998 10.4624 9.68069 9.12896H8.00993C7.41187 12.5256 6.86774 15.9765 6.19995 19.3033H7.90559C8.17306 17.5968 8.42336 15.8728 8.7757 14.2509C10.23 14.2151 11.9729 14.1526 13.3704 14.2859C13.0822 15.972 12.7341 17.5976 12.4654 19.3033H14.171C14.7192 15.8564 15.2965 12.4391 15.9811 9.12896H14.2405V9.12896ZM38.3623 12.0558C37.0352 11.5193 35.9918 12.426 35.5081 13.2754C35.6178 12.8975 35.663 12.455 35.7519 12.0558H34.4292C34.1057 14.5662 33.6292 16.9229 33.1762 19.3033H34.673C34.8827 17.8904 34.9733 15.9858 35.4386 14.6342C35.8106 13.5542 36.7839 12.6341 38.1885 13.136C38.2079 12.7376 38.3219 12.4334 38.3623 12.0558V12.0558ZM39.1975 17.596C39.0595 17.2391 39.024 16.6501 39.0584 16.2021C39.1358 15.1954 39.5023 13.9697 40.0679 13.4147C40.8484 12.6488 42.3893 12.7756 43.6184 13.2057C43.6564 12.791 43.7396 12.4211 43.7925 12.0211C41.7768 11.6915 39.8641 11.8966 38.8499 12.9619C37.8569 14.0047 37.2063 16.4015 37.6662 17.9096C38.2047 19.6744 40.6193 19.7703 42.5742 19.0944C42.6607 18.7396 42.7065 18.3442 42.783 17.9794C41.7146 18.5348 39.6723 18.8235 39.1975 17.596V17.596ZM56.0098 12.0906C54.6869 11.4285 53.5855 12.5395 53.1556 13.2056C53.2781 12.8638 53.2851 12.4061 53.3992 12.0557H52.0766C51.7199 14.5443 51.2901 16.9595 50.7888 19.3031H52.3204C52.33 18.3426 52.5185 17.632 52.6683 16.6901C52.9883 14.6786 53.4584 12.4728 55.8012 13.1359C55.8787 12.7958 55.911 12.4099 56.0098 12.0906ZM16.9555 12.0558C16.9149 12.0617 16.9176 12.1109 16.9206 12.1603C16.5908 14.6292 16.1444 16.9817 15.6676 19.3031H17.1643C17.5239 16.8176 17.9359 14.3846 18.4521 12.0557L16.9555 12.0558V12.0558ZM30.1128 11.9165C29.0313 12 28.1171 12.3114 27.4674 12.9967C26.6706 13.837 26.0253 15.6949 26.2144 17.387C26.4842 19.8009 29.4866 19.7141 31.888 19.1291C31.929 18.7054 32.0314 18.3432 32.0968 17.9444C31.1076 18.315 29.39 18.8322 28.3723 18.1885C27.6041 17.7021 27.5996 16.4711 27.8502 15.4009C29.4642 15.3495 31.1417 15.3593 32.758 15.4009C32.8604 14.6425 33.1539 13.8156 32.8972 13.0665C32.5588 12.0775 31.3465 11.8213 30.1128 11.9165ZM31.5399 14.5646H28.0241C28.1355 13.7555 28.8626 12.8662 30.0083 12.8224C31.0866 12.7811 31.8586 13.2187 31.5399 14.5646V14.5646ZM24.4392 12.0558C23.1724 11.5795 21.6285 12.1481 20.9591 12.689C20.9615 12.7128 20.9432 12.7161 20.9234 12.7178C20.9348 12.7082 20.9472 12.6986 20.9591 12.689C20.959 12.687 20.9588 12.685 20.9584 12.6831C20.9696 12.4505 21.0514 12.2884 21.0628 12.0558H19.7749C19.2382 15.6301 18.6018 19.1044 17.9302 22.5436H19.4269C19.6435 21.2042 19.7865 19.7911 20.0883 18.5367C20.4301 19.8561 22.662 19.604 23.6039 19.0942C25.547 18.0422 27.0459 13.0359 24.4392 12.0558V12.0558ZM23.2558 17.9444C22.455 18.7933 20.4863 18.7806 20.3319 17.352C20.2647 16.7304 20.4959 16.0787 20.6105 15.4357C20.7261 14.7848 20.8095 14.1603 20.9236 13.589C21.7123 12.6249 24.0301 12.5084 24.2652 14.1116C24.4692 15.5035 23.9188 17.2413 23.2558 17.9444V17.9444ZM61.5789 8.91994C61.4507 10.0458 61.2792 11.1286 61.057 12.1603C57.3855 10.9969 55.134 13.701 55.1745 17.0385C55.1825 17.684 55.2935 18.324 55.6965 18.7806C56.3917 19.5672 58.3815 19.7557 59.3863 19.0941C59.5807 18.9661 59.7795 18.7331 59.9083 18.5716C60.0052 18.45 60.1589 18.1314 60.1868 18.2231C60.1339 18.5766 60.0549 18.9043 60.0478 19.3031H61.4053C61.667 15.5464 62.4758 12.3377 63.076 8.9198H61.5791V8.91994H61.5789ZM58.2375 18.5018C57.23 18.5234 56.7289 17.8992 56.7058 16.8642C56.6657 15.0516 57.46 13.0378 59.0729 12.8572C59.8238 12.7732 60.3675 12.948 60.9178 13.136C60.4126 15.1721 60.5949 18.4512 58.2375 18.5018V18.5018ZM45.3238 12.0558C45.2501 12.4698 45.137 12.8445 45.0453 13.2405C45.9286 13.0187 48.6788 12.339 48.9438 13.5192C49.0318 13.9112 48.88 14.3278 48.7698 14.6342C46.2829 14.3984 44.2559 14.812 43.7226 16.5854C43.3655 17.7733 43.7626 18.9422 44.5232 19.2685C45.9882 19.8968 47.77 19.177 48.3869 18.1885C48.3228 18.5306 48.2621 18.8766 48.2827 19.3033H49.5704C49.5842 18.0686 49.7637 17.0692 49.9533 15.9582C50.1149 15.0121 50.4192 14.0755 50.3711 13.2405C50.2602 11.3281 47.0953 12.0046 45.3238 12.0558V12.0558ZM47.7603 17.9095C46.989 18.6654 44.8238 18.8801 45.0453 17.0733C45.2291 15.5726 46.8615 15.2537 48.6303 15.4703C48.4989 16.2913 48.3481 17.3336 47.7603 17.9095V17.9095Z" fill="white"/>
</g>
<defs>
<clipPath id="clip0_3805_388">
<rect width="68.8636" height="30" fill="white" transform="translate(0.136475)"/>
</clipPath>
</defs>
</svg>
